<svg width="728" height="141" viewBox="0 0 728 141" fill="none" xmlns="http://www.w3.org/2000/svg">
<path d="M160.849 112.113C154.763 112.113 149.569 111 145.264 108.774C140.96 106.547 137.138 103.319 133.799 99.0892L140.923 91.965C143.372 95.3787 146.192 97.9761 149.383 99.7571C152.574 101.464 156.507 102.317 161.183 102.317C165.784 102.317 169.457 101.316 172.203 99.3118C175.023 97.3082 176.433 94.5624 176.433 91.0745C176.433 88.1803 175.765 85.8426 174.429 84.0616C173.093 82.2805 171.275 80.8334 168.975 79.7203C166.748 78.5329 164.299 77.4939 161.628 76.6034C158.956 75.6387 156.285 74.6368 153.613 73.5979C150.942 72.4847 148.493 71.1489 146.266 69.5905C144.04 67.9579 142.222 65.8429 140.812 63.2455C139.476 60.6482 138.808 57.3829 138.808 53.4497C138.808 49.0713 139.847 45.3608 141.925 42.3182C144.077 39.2013 146.971 36.8266 150.608 35.1939C154.318 33.4871 158.474 32.6337 163.075 32.6337C168.121 32.6337 172.648 33.6355 176.656 35.6392C180.663 37.5687 183.928 40.1289 186.451 43.32L179.327 50.4442C177.027 47.7726 174.541 45.7689 171.869 44.4332C169.272 43.0974 166.266 42.4295 162.852 42.4295C158.697 42.4295 155.394 43.3571 152.945 45.2124C150.496 46.9934 149.272 49.5166 149.272 52.7818C149.272 55.3792 149.94 57.4942 151.276 59.1268C152.686 60.6853 154.504 62.0211 156.73 63.1342C158.956 64.2474 161.405 65.2863 164.077 66.2511C166.823 67.1416 169.531 68.1434 172.203 69.2566C174.874 70.3697 177.323 71.7797 179.55 73.4866C181.776 75.1934 183.557 77.4197 184.893 80.1655C186.303 82.8371 187.008 86.2137 187.008 90.2953C187.008 97.1226 184.633 102.466 179.884 106.325C175.208 110.184 168.863 112.113 160.849 112.113ZM207.455 111V35.9732H217.474V111H207.455ZM194.431 67.2529V58.125H230.498V67.2529H194.431ZM261.573 112.113C257.269 112.113 253.373 111.148 249.885 109.219C246.471 107.215 243.8 104.469 241.87 100.982C239.941 97.4937 238.976 93.4492 238.976 88.8482V58.125H248.994V88.4029C248.994 91.2971 249.477 93.8203 250.441 95.9724C251.48 98.0503 252.965 99.6458 254.894 100.759C256.823 101.872 259.087 102.429 261.684 102.429C265.617 102.429 268.697 101.204 270.923 98.7553C273.15 96.2321 274.263 92.7813 274.263 88.4029V58.125H284.281V88.8482C284.281 93.4492 283.317 97.4937 281.387 100.982C279.458 104.469 276.786 107.215 273.372 109.219C270.033 111.148 266.1 112.113 261.573 112.113ZM320.083 112.113C315.185 112.113 310.807 110.926 306.948 108.551C303.089 106.102 300.009 102.8 297.709 98.6439C295.482 94.4882 294.369 89.8129 294.369 84.6182C294.369 79.4234 295.482 74.7482 297.709 70.5924C300.009 66.4366 303.089 63.1342 306.948 60.6853C310.807 58.2363 315.185 57.0118 320.083 57.0118C324.016 57.0118 327.579 57.8653 330.77 59.5721C333.961 61.2047 336.521 63.5053 338.45 66.4737C340.454 69.3679 341.567 72.7445 341.79 76.6034V92.5216C341.567 96.3063 340.491 99.6829 338.562 102.651C336.632 105.62 334.072 107.957 330.881 109.664C327.69 111.297 324.091 112.113 320.083 112.113ZM321.753 102.651C325.092 102.651 327.987 101.872 330.436 100.314C332.959 98.7553 334.925 96.6403 336.335 93.9687C337.745 91.2229 338.45 88.1061 338.45 84.6182C338.45 80.9818 337.708 77.8279 336.224 75.1563C334.814 72.4847 332.847 70.3697 330.324 68.8113C327.875 67.2529 324.981 66.4737 321.642 66.4737C318.302 66.4737 315.371 67.2529 312.848 68.8113C310.325 70.3697 308.321 72.5218 306.837 75.2676C305.427 77.9392 304.722 81.0189 304.722 84.5068C304.722 88.0689 305.427 91.2229 306.837 93.9687C308.321 96.6403 310.325 98.7553 312.848 100.314C315.445 101.872 318.414 102.651 321.753 102.651ZM347.912 111H337.782V96.7516L339.675 83.8389L337.782 71.0376V31.5205H347.912V111ZM379.863 111.445L356.932 58.125H368.064L385.095 99.8684H381.533L399.455 58.125H410.586L385.874 111.445H379.863ZM364.724 133.152L380.309 101.204L385.874 111.445L375.856 133.152H364.724ZM428.472 111V101.872H451.848C456.301 101.872 459.789 100.573 462.312 97.9761C464.835 95.3045 466.097 92.1134 466.097 88.4029C466.097 85.8797 465.54 83.6163 464.427 81.6126C463.314 79.5347 461.681 77.9021 459.529 76.7147C457.451 75.5274 455.002 74.9337 452.182 74.9337H428.472V65.8058H450.624C454.334 65.8058 457.265 64.8411 459.418 62.9116C461.644 60.9079 462.757 58.0508 462.757 54.3403C462.757 50.6297 461.607 47.8097 459.306 45.8803C457.006 43.8766 453.963 42.8747 450.178 42.8747H428.472V33.7468H450.401C455.447 33.7468 459.64 34.6745 462.98 36.5297C466.393 38.3108 468.954 40.6855 470.661 43.6539C472.442 46.6224 473.332 49.8876 473.332 53.4497C473.332 57.6055 472.182 61.2418 469.881 64.3587C467.655 67.4755 464.353 69.9245 459.974 71.7055L460.865 68.3661C465.837 70.1471 469.696 72.8558 472.442 76.4921C475.262 80.0542 476.672 84.2842 476.672 89.1821C476.672 93.2637 475.67 96.9371 473.666 100.202C471.662 103.468 468.768 106.102 464.983 108.106C461.273 110.035 456.709 111 451.292 111H428.472ZM421.459 111V33.7468H431.923V111H421.459ZM510.294 112.113C505.99 112.113 502.094 111.148 498.606 109.219C495.192 107.215 492.521 104.469 490.591 100.982C488.662 97.4937 487.697 93.4492 487.697 88.8482V58.125H497.715V88.4029C497.715 91.2971 498.198 93.8203 499.163 95.9724C500.202 98.0503 501.686 99.6458 503.615 100.759C505.545 101.872 507.808 102.429 510.405 102.429C514.339 102.429 517.418 101.204 519.645 98.7553C521.871 96.2321 522.984 92.7813 522.984 88.4029V58.125H533.003V88.8482C533.003 93.4492 532.038 97.4937 530.108 100.982C528.179 104.469 525.507 107.215 522.094 109.219C518.754 111.148 514.821 112.113 510.294 112.113ZM568.805 112.113C563.907 112.113 559.528 110.926 555.669 108.551C551.81 106.102 548.731 102.8 546.43 98.6439C544.204 94.4882 543.091 89.8129 543.091 84.6182C543.091 79.4234 544.204 74.7482 546.43 70.5924C548.731 66.4366 551.81 63.1342 555.669 60.6853C559.528 58.2363 563.907 57.0118 568.805 57.0118C572.738 57.0118 576.3 57.8653 579.491 59.5721C582.682 61.2047 585.242 63.5053 587.172 66.4737C589.175 69.3679 590.288 72.7445 590.511 76.6034V92.5216C590.288 96.3063 589.212 99.6829 587.283 102.651C585.353 105.62 582.793 107.957 579.602 109.664C576.411 111.297 572.812 112.113 568.805 112.113ZM570.474 102.651C573.814 102.651 576.708 101.872 579.157 100.314C581.68 98.7553 583.647 96.6403 585.057 93.9687C586.467 91.2229 587.172 88.1061 587.172 84.6182C587.172 80.9818 586.43 77.8279 584.945 75.1563C583.535 72.4847 581.569 70.3697 579.046 68.8113C576.597 67.2529 573.702 66.4737 570.363 66.4737C567.023 66.4737 564.092 67.2529 561.569 68.8113C559.046 70.3697 557.042 72.5218 555.558 75.2676C554.148 77.9392 553.443 81.0189 553.443 84.5068C553.443 88.0689 554.148 91.2229 555.558 93.9687C557.042 96.6403 559.046 98.7553 561.569 100.314C564.166 101.872 567.135 102.651 570.474 102.651ZM596.633 111H586.504V96.7516L588.396 83.8389L586.504 71.0376V31.5205H596.633V111ZM633.594 112.113C628.696 112.113 624.317 110.926 620.458 108.551C616.6 106.102 613.52 102.8 611.219 98.6439C608.993 94.4882 607.88 89.8129 607.88 84.6182C607.88 79.4234 608.993 74.7482 611.219 70.5924C613.52 66.4366 616.6 63.1342 620.458 60.6853C624.317 58.2363 628.696 57.0118 633.594 57.0118C637.527 57.0118 641.089 57.8653 644.28 59.5721C647.471 61.2047 650.031 63.5053 651.961 66.4737C653.965 69.3679 655.078 72.7445 655.3 76.6034V92.5216C655.078 96.3063 654.002 99.6829 652.072 102.651C650.143 105.62 647.582 107.957 644.391 109.664C641.2 111.297 637.601 112.113 633.594 112.113ZM635.263 102.651C638.603 102.651 641.497 101.872 643.946 100.314C646.469 98.7553 648.436 96.6403 649.846 93.9687C651.256 91.2229 651.961 88.1061 651.961 84.6182C651.961 80.9818 651.219 77.8279 649.735 75.1563C648.325 72.4847 646.358 70.3697 643.835 68.8113C641.386 67.2529 638.492 66.4737 635.152 66.4737C631.813 66.4737 628.881 67.2529 626.358 68.8113C623.835 70.3697 621.831 72.5218 620.347 75.2676C618.937 77.9392 618.232 81.0189 618.232 84.5068C618.232 88.0689 618.937 91.2229 620.347 93.9687C621.831 96.6403 623.835 98.7553 626.358 100.314C628.956 101.872 631.924 102.651 635.263 102.651ZM661.423 111H651.293V96.7516L653.185 83.8389L651.293 71.0376V31.5205H661.423V111ZM693.374 111.445L670.443 58.125H681.574L698.606 99.8684H695.044L712.965 58.125H724.097L699.385 111.445H693.374ZM678.235 133.152L693.819 101.204L699.385 111.445L689.366 133.152H678.235Z" fill="black"/>
<path fill-rule="evenodd" clip-rule="evenodd" d="M60.154 122.323C79.7293 122.323 95.5983 106.454 95.5983 86.879C95.5983 67.3036 79.7293 51.4347 60.154 51.4347C40.5787 51.4347 24.7097 67.3036 24.7097 86.879C24.7097 96.5991 28.6224 105.405 34.9586 111.809V122.323H60.107C60.1227 122.323 60.1383 122.323 60.154 122.323Z" fill="#2E5D59"/>
<path fill-rule="evenodd" clip-rule="evenodd" d="M60.1541 89.4412C60.1541 89.4412 60.1541 89.4412 60.1541 89.4412C79.7294 89.4412 95.5983 73.5722 95.5983 53.9969C95.5983 34.4216 79.7294 18.5526 60.1541 18.5526C60.1541 18.5526 60.1541 18.5526 60.1541 18.5526V89.4412Z" fill="#37736E"/>
<path fill-rule="evenodd" clip-rule="evenodd" d="M60.154 89.4412C79.7293 89.4412 95.5983 73.5722 95.5983 53.9969C95.5983 34.4216 79.7293 18.5526 60.154 18.5526C60.154 18.5526 60.154 18.5526 60.154 18.5526H34.9586V29.0672C28.6224 35.4705 24.7097 44.2768 24.7097 53.9969C24.7097 63.717 28.6224 72.5233 34.9586 78.9266V89.4412H60.154Z" fill="#37736E"/>
<path fill-rule="evenodd" clip-rule="evenodd" d="M67.5377 38.1738L19.9896 85.7219C8.3568 79.9087 0.368408 67.8857 0.368408 53.9969C0.368408 34.4216 16.2374 18.5526 35.8127 18.5526C49.7015 18.5526 61.7245 26.541 67.5377 38.1738Z" fill="#6CD1BE"/>
<path fill-rule="evenodd" clip-rule="evenodd" d="M2.93054 102.826L50.4787 55.2781C62.1115 61.0913 70.0999 73.1143 70.0999 87.0031C70.0999 106.578 54.2309 122.447 34.6556 122.447C20.7668 122.447 8.74376 114.459 2.93054 102.826Z" fill="#58B5A6"/>
</svg>
